<?xml version="1.0" encoding="UTF-8"?>
<svg id="Layer_1" data-name="Layer 1" xmlns="http://www.w3.org/2000/svg" viewBox="0 0 289.15 57.05">
  <path d="M163.53,5.76V0h-26.76v3.15h5.26v5.75l-9.96-5.75h2.59V0h-12.9v3.15h4l8.91,5.13-6.28,6.29c-.41.36-.89.65-1.42.85-.54.2-1.13.31-1.76.31h-3.44v3.15h3.52c1.04-.02,2.03-.21,2.94-.57s1.7-.87,2.38-1.51l6.87-6.9,4.55,2.63v3.19h-5.26v3.15h13.66v-3.15h-5.26v-3.44s13.12,0,13.12,0v-3.15h-13.13V3.15h15.24v2.61h3.13Z"/>
  <rect x="16.16" y="27.86" width="6.73" height="6.73" transform="translate(-16.36 22.95) rotate(-45)"/>
  <rect x="16.16" y="44.56" width="6.73" height="6.73" transform="translate(-28.17 27.84) rotate(-45)"/>
  <rect x="7.93" y="35.91" width="6.73" height="6.73" transform="translate(-24.47 19.49) rotate(-45)"/>
  <rect x="265.83" y="44.37" width="6.73" height="6.73" transform="translate(45.09 204.33) rotate(-45)"/>
  <rect x="265.95" y="27.61" width="6.73" height="6.73" transform="translate(56.98 199.51) rotate(-45)"/>
  <rect x="274.11" y="36.08" width="6.73" height="6.73" transform="translate(53.38 207.76) rotate(-45)"/>
  <path d="M41.24,30.36h1.74l-5.89,3.4v-3.4h2.77v-1.38h-6.91v1.38h2.77v6.89h-2.77v1.39h6.91v-1.39h-2.77v-1.9l2.56-1.48,3.69,3.7c.34.33.75.58,1.21.76.46.18.96.28,1.5.29h1.71v-1.39h-1.67c-.35,0-.68-.06-.98-.17-.3-.11-.56-.27-.79-.48l-3.44-3.44,4.88-2.81h2v-1.38h-6.51v1.38Z"/>
  <polygon points="59.34 30.36 62.11 30.36 62.11 37.25 59.34 37.25 59.34 38.64 73.15 38.64 73.15 35.88 71.77 35.88 71.77 37.25 63.48 37.25 63.48 34.5 70.39 34.5 70.39 33.11 63.48 33.11 63.48 30.36 71.77 30.36 71.77 31.73 73.15 31.73 73.15 28.97 59.34 28.97 59.34 30.36"/>
  <polygon points="97.17 37.25 88.87 37.25 88.87 30.36 91.64 30.36 91.64 28.97 84.73 28.97 84.73 30.36 87.5 30.36 87.5 37.25 84.73 37.25 84.73 38.63 98.54 38.63 98.54 35.88 97.17 35.88 97.17 37.25"/>
  <polygon points="122.56 37.25 114.27 37.25 114.27 30.36 117.03 30.36 117.03 28.97 110.13 28.97 110.13 30.36 112.89 30.36 112.89 37.25 110.13 37.25 110.13 38.63 123.93 38.63 123.93 35.88 122.56 35.88 122.56 37.25"/>
  <path d="M141.46,34.5l2.31-4.13,2.29,4.13h-4.6ZM145.23,30.36h2.72v-1.38h-8.29v1.38h2.64l-4.02,6.89h-2.76v1.39h6.91v-1.39h-2.51l.78-1.37h6.14l.76,1.37h-2.42v1.39h6.91v-1.39h-2.83l-4.02-6.89Z"/>
  <path d="M173.41,34.5h-5.6v-4.14h5.6c.33,0,.64.06.93.16.29.11.53.26.74.44.21.18.38.4.49.65.12.25.18.52.18.81s-.06.56-.18.81c-.12.25-.28.47-.49.65s-.46.33-.74.44c-.29.11-.6.16-.93.16M175.46,37.08c-.3-.11-.56-.27-.79-.47l-.75-.75c.48-.05.92-.18,1.33-.38.41-.2.76-.45,1.07-.75s.54-.65.71-1.05c.17-.4.26-.81.26-1.25,0-.48-.1-.92-.3-1.35-.2-.42-.47-.79-.81-1.1-.34-.31-.75-.56-1.21-.74-.46-.18-.96-.27-1.48-.27h-9.82v1.38h2.77v6.9h-2.77v1.38h6.91v-1.38h-2.77v-1.37h4.19l1.7,1.7c.34.33.75.58,1.21.76s.96.28,1.49.29h1.46v-1.38h-1.42c-.35,0-.68-.06-.97-.17"/>
  <path d="M201.93,35.15c-.22.42-.51.78-.89,1.09-.38.31-.82.56-1.32.74-.5.18-1.04.27-1.61.27h-4.54v-6.89h4.54c.57,0,1.11.09,1.61.27s.94.43,1.32.74c.38.31.67.68.89,1.1.21.42.32.87.32,1.34s-.11.92-.32,1.34M202.09,30.39c-.5-.44-1.08-.78-1.75-1.04-.67-.25-1.39-.38-2.15-.38h-8.75v1.39h2.77v6.89h-2.77v1.38h8.75c.76,0,1.48-.13,2.15-.38.67-.25,1.25-.6,1.75-1.03.5-.44.89-.94,1.18-1.53.29-.58.43-1.21.43-1.88s-.15-1.3-.43-1.88c-.29-.59-.68-1.1-1.18-1.54"/>
  <polygon points="214.24 30.36 217 30.36 217 37.25 214.24 37.25 214.24 38.64 228.04 38.64 228.04 35.88 226.67 35.88 226.67 37.25 218.38 37.25 218.38 34.5 225.28 34.5 225.28 33.11 218.38 33.11 218.38 30.36 226.67 30.36 226.67 31.73 228.04 31.73 228.04 28.97 214.24 28.97 214.24 30.36"/>
  <polygon points="249.29 30.36 252.06 30.36 252.06 36.7 244.33 28.97 239.63 28.97 239.63 30.36 242.4 30.36 242.4 37.25 239.63 37.25 239.63 38.64 246.54 38.64 246.54 37.25 243.77 37.25 243.77 30.36 252.05 38.64 253.43 38.64 253.43 30.36 256.2 30.36 256.2 28.97 249.29 28.97 249.29 30.36"/>
  <polygon points="88.23 46.14 90.08 46.14 90.08 50.74 88.23 50.74 88.23 51.66 92.84 51.66 92.84 50.74 90.99 50.74 90.99 48.9 95.6 48.9 95.6 47.98 90.99 47.98 90.99 46.14 96.52 46.14 96.52 47.06 97.44 47.06 97.44 45.22 88.23 45.22 88.23 46.14"/>
  <path d="M115.49,48.9l1.54-2.75,1.53,2.75h-3.07ZM118.01,46.14h1.81v-.92h-5.53v.92h1.76l-2.68,4.6h-1.84v.92h4.61v-.92h-1.67l.52-.91h4.1l.51.91h-1.62v.92h4.61v-.92h-1.89l-2.68-4.6Z"/>
  <path d="M145.48,48.9h-3.74v-2.76h3.74c.22,0,.43.04.62.11s.36.17.5.29c.14.12.25.27.33.44.08.17.12.35.12.54s-.04.37-.12.54c-.08.17-.19.31-.33.43-.14.12-.31.22-.5.3-.19.07-.4.11-.62.11M146.85,50.62c-.2-.08-.38-.18-.53-.32l-.5-.5c.32-.04.61-.12.88-.25.27-.13.51-.3.71-.5s.36-.44.47-.7c.12-.26.17-.54.17-.83,0-.32-.07-.62-.2-.9-.13-.28-.31-.53-.54-.73-.23-.21-.5-.37-.8-.49-.31-.12-.64-.18-.99-.18h-6.55v.92h1.85v4.6h-1.85v.92h4.61v-.92h-1.85v-.91h2.79l1.13,1.13c.23.22.5.39.81.51.31.12.64.19.99.19h.97v-.92h-.95c-.23,0-.45-.04-.65-.11"/>
  <polygon points="170.89 49.94 168.17 45.22 164.85 45.22 164.85 46.14 166.7 46.14 166.7 50.74 164.85 50.74 164.85 51.66 169 51.66 169 50.74 167.61 50.74 167.61 46.12 170.82 51.66 170.96 51.66 174.16 46.12 174.16 50.74 172.78 50.74 172.78 51.66 176.92 51.66 176.92 50.74 175.09 50.74 175.09 46.14 176.92 46.14 176.92 45.22 173.62 45.22 170.89 49.94"/>
  <path d="M200.23,48.5c-.24-.13-.49-.21-.75-.27-.25-.05-.46-.09-.62-.1l-3-.29c-.42-.03-.75-.13-.99-.29-.24-.15-.36-.37-.36-.64,0-.13.05-.26.15-.39.1-.13.26-.24.48-.33.22-.1.5-.17.85-.23.35-.06.77-.09,1.26-.09.59,0,1.12.05,1.6.14.48.1.86.22,1.14.37v.67h.91v-1.84h-.91v.22c-.38-.13-.8-.24-1.27-.31-.46-.07-.95-.11-1.47-.11-.46,0-.91.03-1.36.09-.45.06-.85.16-1.21.31-.35.15-.64.34-.87.59-.22.25-.33.56-.33.94s.09.67.26.9c.18.23.39.41.63.53.24.13.49.21.74.27.25.05.46.09.62.11l3.01.29c.42.04.75.13.99.29.24.16.36.37.36.64,0,.14-.06.27-.17.39-.11.13-.28.24-.51.33s-.53.17-.88.23c-.36.06-.78.09-1.27.09-.64,0-1.22-.05-1.75-.15-.53-.1-.94-.22-1.24-.38v-.66h-.92v1.84h.92v-.25c.41.14.87.25,1.38.33.51.08,1.04.12,1.61.12.46,0,.92-.03,1.38-.09.46-.06.88-.16,1.25-.31.37-.15.67-.34.91-.59.23-.25.35-.56.35-.95s-.09-.67-.26-.9c-.18-.23-.39-.41-.63-.53"/>
  <polygon points="33.5 48.57 34.39 48.57 34.39 47.97 33.5 47.97 33.5 46.94 34.65 46.94 34.65 46.34 32.81 46.34 32.81 50.35 34.73 50.35 34.73 49.75 33.5 49.75 33.5 48.57"/>
  <path d="M37.67,47.28c0-.25.12-.39.34-.39.15,0,.34.1.37.44l.65-.07c-.06-.57-.39-.97-.95-.97-.68,0-1.06.36-1.06,1,0,1.15,1.4,1.36,1.4,2.15,0,.24-.16.37-.4.37-.22,0-.38-.2-.41-.6l-.65.09c.03.6.39,1.11,1.03,1.11s1.09-.37,1.09-1.03c0-1.09-1.4-1.41-1.4-2.09"/>
  <polygon points="41.24 46.94 41.9 46.94 41.9 50.35 42.59 50.35 42.59 46.94 43.26 46.94 43.26 46.34 41.24 46.34 41.24 46.94"/>
  <path d="M46.95,49.22c0,.42-.13.56-.49.56h-.24v-2.87h.24c.37,0,.49.14.49.56v1.75ZM46.55,46.34h-1.02v4h1.02c.71,0,1.09-.39,1.09-1.21v-1.58c0-.82-.38-1.21-1.09-1.21"/>
  <path d="M241.23,45.54c-.77,0-1.21.54-1.21,1.24v.22h.78v-.32c0-.29.13-.49.4-.49.22,0,.37.16.37.54,0,.7-.55,1.52-1.57,3v.64h2.28v-.67h-1.44c1.28-1.79,1.52-2.35,1.52-3.1,0-.55-.44-1.06-1.11-1.06"/>
  <path d="M245.91,49.33c0,.31-.14.46-.38.46s-.38-.15-.38-.46v-2.69c0-.31.14-.46.38-.46s.38.15.38.46v2.69ZM245.53,45.54c-.82,0-1.16.41-1.16,1.31v2.28c0,.9.34,1.31,1.16,1.31s1.16-.41,1.16-1.31v-2.28c0-.9-.34-1.31-1.16-1.31"/>
  <path d="M249.94,45.54c-.77,0-1.21.54-1.21,1.24v.22h.78v-.32c0-.29.13-.49.4-.49.22,0,.37.16.37.54,0,.7-.55,1.52-1.57,3v.64h2.28v-.67h-1.44c1.28-1.79,1.52-2.35,1.52-3.1,0-.55-.44-1.06-1.11-1.06"/>
  <path d="M254.2,48.61h-.81l.8-1.86h.01v1.86ZM254.93,45.61h-.79l-1.39,3.01v.61h1.42v1.15h.75v-1.15h.44v-.61h-.44v-3.01Z"/>
  <path d="M4.78,36.74l.69.69c.22.22.57.22.79,0l12.65-12.65c.22-.22.59-.22.81,0l6.32,6.32c.22.22.22.59,0,.81l-3.94,3.94c-.22.22-.22.59,0,.81l.67.67c.22.22.59.22.81,0l5.08-5.08c.41-.41.41-1.07,0-1.48l-6.24-6.24c-.21-.21-.06-.58.24-.58h242.77c.47,0,.71.57.37.9l-5.53,5.53c-.2.2-.31.46-.31.74s.11.54.31.74l14.44,14.44c.21.21.54.21.75,0l.73-.73c.21-.21.21-.54,0-.75l-13.33-13.33c-.21-.21-.21-.54,0-.75l5.99-5.99c.21-.21.54-.21.75,0l4.84,4.84c.21.21.54.21.75,0l.73-.73c.21-.21.21-.54,0-.75l-5.96-5.96h0c-.19-.18-.45-.3-.73-.3H19.31c-.27,0-.54.1-.74.31l-13.79,13.79c-.22.22-.22.57,0,.79"/>
  <path d="M283.08,40.94l-13.21,13.21c-.21.21-.54.21-.75,0l-6.38-6.38c-.21-.21-.21-.54,0-.75l4.66-4.66c.21-.21.21-.54,0-.75l-.73-.73c-.21-.21-.54-.21-.75,0l-5.78,5.78c-.2.2-.31.46-.31.74s.11.54.31.74l5.92,5.92c.33.33.1.9-.37.9H22.67c-.21,0-.31-.25-.17-.4l6.03-6.03c.41-.41.41-1.07,0-1.48l-13.12-13.12c-.21-.21-.56-.21-.77,0l-.71.71c-.21.21-.21.56,0,.77l12.05,12.05c.18.18.18.48,0,.66l-6,6c-.23.23-.6.23-.83,0l-4.53-4.53c-.29-.29-.76-.29-1.06,0l-.42.42c-.29.29-.29.76,0,1.06l5.68,5.68h0c.19.18.45.3.73.3h249.91c.28,0,.54-.11.74-.31l14.33-14.33c.21-.21.21-.54,0-.75l-.73-.73c-.21-.21-.54-.21-.75,0"/>
  <path d="M17.93,41.57l-.66-.65c-.23-.23-.6-.23-.82,0l-5.86,5.89c-1.4,1.44-3.51,1.92-5.56,1.11-1.82-.72-2.96-2.52-2.93-4.47,0-.04,0-.08,0-.12,0-.26-.09-.51-.27-.69l-1.06-1.11c-.17-.18-.48-.09-.53.15-.11.58-.23,1.32-.23,1.7,0,3.88,3.15,7.03,7.03,7.03,1.92,0,3.72-.76,5.04-2.13l5.85-5.88c.23-.23.23-.6,0-.82"/>
  <path d="M8.07,45.96c.2.2.54.2.74,0l.74-.74c.2-.21.2-.54,0-.74l-5.93-5.9c-1.38-1.34-1.88-3.33-1.21-5.3.66-1.96,2.58-3.2,4.65-3.2.23,0,.3-.01.41,0,.19.02.38-.05.52-.19l1.09-1.09c.17-.17.11-.47-.12-.55-.66-.22-1.48-.26-1.9-.26C3.17,28,.02,31.15.02,35.03c0,1.92.76,3.72,2.13,5.04l5.92,5.89Z"/>
  <path d="M271.91,37.47c.21.21.55.21.76,0l5.89-5.92c.94-.97,2.2-1.51,3.55-1.51,2.72,0,4.94,2.22,4.94,4.94,0,.24-.02.48-.05.72-.03.2.05.47.19.6l1.14,1.11c.13.13.35.07.4-.11.22-.79.4-1.87.4-2.32,0-3.88-3.15-7.03-7.03-7.03-1.92,0-3.71.76-5.04,2.13l-5.88,5.91c-.21.21-.21.55,0,.76l.72.71Z"/>
  <path d="M286.63,38.58l-5.92-5.89c-.21-.21-.54-.21-.75,0l-.73.73c-.21.21-.21.54,0,.75l5.93,5.9c1.38,1.34,1.88,3.33,1.21,5.3-.69,2.03-2.68,3.28-4.82,3.19-.1,0-.19-.02-.33-.04-.35-.05-.73.39-.73.39l-.88.9c-.22.21-.1.59.2.63.67.1,1.55.21,1.91.21,3.88,0,7.03-3.15,7.03-7.03,0-1.92-.76-3.72-2.13-5.04"/>
</svg>