<?xml version="1.0" encoding="UTF-8"?>
<svg id="Layer_2" data-name="Layer 2" xmlns="http://www.w3.org/2000/svg" viewBox="0 0 22 26.01">
  <defs>
    <style>
      .cls-1 {
        fill-rule: evenodd;
      }

      .cls-1, .cls-2 {
        fill: #369;
      }
    </style>
  </defs>
  <g id="Layer_1-2" data-name="Layer 1">
    <g id="uuid-f1735c85-c548-4951-ba8d-f9e067e73acc" data-name="Layer 1-2">
      <g>
        <path class="cls-1" d="M7.59.89C8.6.33,9.76.01,11,.01s2.4.32,3.41.88l.74-.74c.2-.2.51-.2.71,0,.19.2.19.51,0,.71l-.59.59c1.67,1.28,2.74,3.29,2.74,5.55H4c0-2.26,1.07-4.27,2.74-5.55l-.59-.59c-.19-.2-.19-.51,0-.71.2-.2.51-.2.71,0l.74.74h0ZM9,4.01c0,.55-.45,1-1,1s-1-.45-1-1,.45-1,1-1,1,.45,1,1ZM14,5.01c.55,0,1-.45,1-1s-.45-1-1-1-1,.45-1,1,.45,1,1,1Z"/>
        <path class="cls-2" d="M0,9.51c0-.83.67-1.5,1.5-1.5s1.5.67,1.5,1.5v6c0,.83-.67,1.5-1.5,1.5s-1.5-.67-1.5-1.5v-6Z"/>
        <path class="cls-2" d="M7,21.01v3.5c0,.83.67,1.5,1.5,1.5s1.5-.67,1.5-1.5v-3.5h2v3.5c0,.83.67,1.5,1.5,1.5s1.5-.67,1.5-1.5v-3.5h1c1.1,0,2-.9,2-2v-11H4v11c0,1.1.9,2,2,2h1Z"/>
        <path class="cls-2" d="M19,9.51c0-.83.67-1.5,1.5-1.5s1.5.67,1.5,1.5v6c0,.83-.67,1.5-1.5,1.5s-1.5-.67-1.5-1.5v-6Z"/>
      </g>
    </g>
  </g>
</svg>