<?xml version="1.0" encoding="UTF-8"?>
<svg id="Layer_1" xmlns="http://www.w3.org/2000/svg" version="1.1" viewBox="0 0 181 148">
  <!-- Generator: Adobe Illustrator 29.6.1, SVG Export Plug-In . SVG Version: 2.1.1 Build 9)  -->
  <defs>
    <style>
      .st0 {
        fill: #69c;
      }

      .st1 {
        fill: #fff;
      }

      .st2 {
        fill: #265787;
      }
    </style>
  </defs>
  <path class="st1" d="M68.3,82.9c.6-11.5,6.3-21.6,14.7-28.8,8.3-7,19.5-11.4,31.7-11.4s23.4,4.3,31.7,11.4c8.5,7.2,14.1,17.3,14.7,28.8.6,11.8-4.1,22.8-12.4,30.9-8.5,8.3-20.5,13.5-34.1,13.5s-25.6-5.2-34.1-13.5c-8.3-8.1-13-19.1-12.4-30.8h0Z"/>
  <path class="st2" d="M93.7,81.5c.3-5.9,3.2-11.1,7.6-14.8,4.3-3.6,10-5.8,16.3-5.8s12,2.2,16.3,5.8c4.4,3.7,7.2,8.9,7.6,14.8.3,6.1-2.1,11.7-6.4,15.9-4.4,4.2-10.5,6.9-17.5,6.9s-13.2-2.7-17.5-6.9c-4.3-4.2-6.7-9.8-6.4-15.8h0Z"/>
  <path class="st0" d="M56.3,94c0,2.3.8,6.8,1.9,10.3,2.3,7.4,6.3,14.3,11.7,20.3,5.6,6.2,12.5,11.2,20.5,14.8,8.4,3.7,17.5,5.6,26.9,5.6,9.5,0,18.6-1.9,26.9-5.7,8-3.6,14.9-8.6,20.5-14.8,5.5-6.1,9.4-12.9,11.7-20.4,1.2-3.7,1.9-7.5,2.2-11.4.3-3.7.2-7.5-.4-11.3-1-7.3-3.6-14.2-7.5-20.5-3.6-5.8-8.2-10.8-13.7-15h0S102.1,3.5,102.1,3.5c0,0,0,0-.1-.1-3.6-2.8-9.7-2.8-13.7,0-4,2.8-4.5,7.5-.9,10.4h0s23.1,18.8,23.1,18.8H40.2c0,0,0,0,0,0-5.8,0-11.4,3.8-12.5,8.6-1.1,4.9,2.8,9,8.9,9h0s35.6,0,35.6,0L8.4,98.9c0,0-.2.1-.2.2-6,4.6-7.9,12.2-4.1,17,3.8,4.9,12,4.9,18,0l34.6-28.4s-.5,3.8-.5,6.1h.1ZM145.5,106.8c-7.1,7.3-17.2,11.4-27.9,11.4-10.8,0-20.8-4.1-28-11.3-3.5-3.6-6.1-7.6-7.6-11.9-1.6-4.3-2.2-8.8-1.8-13.3.4-4.5,1.7-8.7,3.8-12.6,2.1-3.8,5-7.2,8.5-10.1,7-5.6,15.8-8.7,25-8.7,9.3,0,18.1,3,25,8.7,3.5,2.9,6.4,6.3,8.5,10.1,2.1,3.8,3.5,8.1,3.8,12.6.4,4.6-.2,9.1-1.8,13.3-1.6,4.4-4.1,8.4-7.6,12h0Z"/>
</svg>