<?xml version="1.0" encoding="UTF-8"?>
<svg id="Layer_2" data-name="Layer 2" xmlns="http://www.w3.org/2000/svg" viewBox="0 0 25 22.01">
  <defs>
    <style>
      .cls-1 {
        fill: #244b69;
      }
    </style>
  </defs>
  <g id="Layer_1-2" data-name="Layer 1">
    <path class="cls-1" d="M19.58,1.48h0c-2.87,2.16-5.95,6.52-7.08,8.86-1.13-2.34-4.21-6.7-7.08-8.85h0C3.35-.07,0-1.27,0,2.55c0,.77.43,6.41.69,7.33.9,3.19,4.15,4,7.04,3.51-5.05.86-6.34,3.71-3.56,6.56,5.27,5.41,7.58-1.36,8.17-3.09.11-.32.16-.47.16-.34,0-.13.05.02.16.34.59,1.73,2.9,8.5,8.17,3.09,2.78-2.85,1.49-5.7-3.56-6.56,2.89.49,6.14-.32,7.04-3.51.26-.92.69-6.56.69-7.33,0-3.82-3.35-2.62-5.42-1.07Z"/>
  </g>
</svg>