<?xml version="1.0" encoding="UTF-8"?>
<svg id="Layer_2" data-name="Layer 2" xmlns="http://www.w3.org/2000/svg" viewBox="0 0 28 28">
  <defs>
    <style>
      .cls-1 {
        fill: #69c;
        fill-rule: evenodd;
      }
    </style>
  </defs>
  <g id="Layer_1-2" data-name="Layer 1">
    <g id="uuid-f1a38c90-3623-4293-936e-e89e97dd0ef4" data-name="Layer 1-2">
      <path class="cls-1" d="M28,14c0,7.73-6.27,14-14,14S0,21.73,0,14,6.27,0,14,0s14,6.27,14,14ZM18.92,24.95c-1.5.68-3.17,1.05-4.92,1.05-2.9,0-5.55-1.03-7.63-2.74,2.16-3.62,5.63-6.36,9.75-7.58,1.18,2.97,2.13,6.07,2.8,9.26h0ZM20.75,23.92c-.66-2.99-1.56-5.89-2.65-8.69.91-.15,1.85-.23,2.81-.23,1.73,0,3.4.26,4.97.74-.49,3.4-2.41,6.33-5.13,8.18ZM26,13.69c-1.62-.45-3.33-.69-5.09-.69-1.23,0-2.43.12-3.59.34-.3-.7-.62-1.39-.95-2.08,2.62-1.16,5.04-2.69,7.19-4.52,1.47,1.94,2.37,4.34,2.44,6.95ZM22.22,5.26c-2.02,1.71-4.29,3.14-6.75,4.22-1.3-2.48-2.77-4.86-4.39-7.11.94-.23,1.91-.36,2.92-.36,3.18,0,6.07,1.24,8.22,3.26h0ZM9.1,3.04c-3.52,1.58-6.15,4.8-6.89,8.7.68.05,1.37.08,2.07.08,3.27,0,6.4-.56,9.32-1.6-1.32-2.51-2.83-4.9-4.49-7.17h-.01ZM2,13.73v.27c0,2.99,1.09,5.73,2.91,7.83,2.39-3.78,6.08-6.66,10.44-8-.27-.61-.55-1.22-.84-1.82-3.19,1.16-6.63,1.8-10.22,1.8-.77,0-1.53-.03-2.28-.09h0Z"/>
    </g>
  </g>
</svg>