<?xml version="1.0" encoding="UTF-8"?>
<svg id="Layer_2" data-name="Layer 2" xmlns="http://www.w3.org/2000/svg" viewBox="0 0 28 28">
  <defs>
    <style>
      .cls-1 {
        fill: #a3d6fb;
      }
    </style>
  </defs>
  <g id="Layer_1-2" data-name="Layer 1">
    <path class="cls-1" d="M0,3.11v21.79c0,1.72,1.39,3.11,3.11,3.11h21.79c1.72,0,3.11-1.39,3.11-3.11V3.11c0-1.72-1.39-3.11-3.11-3.11H3.11C1.39,0,0,1.39,0,3.11ZM14.99,22.2c.04,1.27-.66,3.8-3.76,3.8-2.85,0-4.04-1.7-4.23-2.44l2.15-1.36c.17.51.82,1.44,1.77,1.44s1.43-.97,1.43-1.44v-9.2h2.64v9.2ZM22.01,26.01c-3.83,0-4.85-2.3-5.01-2.71h0s2.06-1.37,2.06-1.37c.16.51,1.18,1.71,2.48,1.71s1.89-.71,1.89-1.17c0-1.28-1.32-1.72-1.95-1.94-.1-.04-.19-.06-.25-.09-.03-.01-.07-.03-.13-.05-.71-.27-3.31-1.26-3.31-4.14,0-3.17,3.06-3.54,3.75-3.54.45,0,2.63.06,3.72,2.09l-2,1.4c-.44-.89-1.17-1.18-1.62-1.18-1.11,0-1.34.81-1.34,1.18,0,1.04,1.2,1.5,2.22,1.89.27.1.52.2.74.3,1.11.52,2.74,1.38,2.74,4.08,0,1.35-1.13,3.54-3.99,3.54Z"/>
  </g>
</svg>