<?xml version="1.0" encoding="UTF-8"?>
<svg id="Layer_2" data-name="Layer 2" xmlns="http://www.w3.org/2000/svg" viewBox="0 0 26.02 28.01">
  <defs>
    <style>
      .cls-1 {
        fill: #366;
      }
    </style>
  </defs>
  <g id="Layer_1-2" data-name="Layer 1">
    <g id="uuid-508a8e24-b317-4013-95e2-5d647b45426c" data-name="Layer 1-2">
      <g>
        <path class="cls-1" d="M14.17.3c-.71-.4-1.63-.4-2.35,0-3.56,1.96-7.12,3.93-10.68,5.89-.68.36-1.14,1.11-1.14,1.88v11.86c0,.79.49,1.54,1.2,1.9,1.02.54,2.01,1.14,3.05,1.65,1.2.59,2.71.72,3.92.11.99-.51,1.43-1.65,1.43-2.69v-11.75c.02-.17-.11-.36-.3-.36h-1.36c-.17-.02-.34.13-.33.3v11.67c0,.54-.35,1.06-.87,1.24-1.2.42-4.62-1.8-4.62-1.8-.13-.06-.2-.19-.19-.33v-11.74c-.02-.16.08-.3.23-.36,3.55-1.95,7.09-3.91,10.64-5.86.12-.08.29-.08.42,0,3.55,1.95,7.09,3.91,10.64,5.86.15.06.24.21.22.37v11.74c0,.14-.06.27-.19.33-3.51,1.94-7.07,3.82-10.55,5.82-.15.09-.32.19-.49.09-.92-.51-1.82-1.03-2.73-1.54-.1-.06-.23-.09-.33-.02-.41.22-.79.39-1.26.58-.66.26-.55.37.04.71,1.07.6,2.14,1.21,3.2,1.81.7.44,1.65.47,2.37.06,3.56-1.96,7.12-3.92,10.68-5.89.71-.36,1.2-1.11,1.2-1.9v-11.86c0-.76-.44-1.49-1.11-1.86-3.57-1.97-7.14-3.94-10.71-5.91h-.03Z"/>
        <path class="cls-1" d="M19.54,9.21c-1.4-.75-3.06-.79-4.61-.69-1.12.11-2.3.42-3.12,1.22-.84.81-1.02,2.11-.62,3.17.29.75,1,1.23,1.74,1.49.96.34,1.96.44,2.97.55.92.1,1.83.19,2.71.46.36.12.78.3.89.69.1.46,0,1-.39,1.32-1.2.95-4.52.8-5.7.06-.48-.32-.68-.88-.77-1.41,0-.17-.14-.32-.32-.31h-1.36c-.16-.01-.32.1-.33.26-.09,2.45,2.16,3.52,4.27,3.76,1.21.12,2.44.11,3.63-.15.89-.2,1.79-.58,2.4-1.27.76-.84.91-2.08.57-3.12-.26-.78-1-1.28-1.76-1.53-1.03-.35-2.26-.54-3.19-.63-1.36-.13-2.98-.08-3.36-.97-.15-.47-.02-1.05.41-1.34,1.14-.77,3.45-.67,4.63-.09.54.27.85.83.98,1.39.02.17.13.34.33.33h1.35c.15.01.32-.08.35-.23-.02-1.17-.62-2.38-1.7-2.95h0Z"/>
      </g>
    </g>
  </g>
</svg>