<?xml version="1.0" encoding="UTF-8"?>
<svg id="Layer_2" data-name="Layer 2" xmlns="http://www.w3.org/2000/svg" viewBox="0 0 27.99 28.01">
  <defs>
    <style>
      .cls-1 {
        fill: #244b69;
      }
    </style>
  </defs>
  <g id="Layer_1-2" data-name="Layer 1">
    <path class="cls-1" d="M27.3,3.46c-.61-1.19-1.58-2.16-2.77-2.77-1.35-.69-3.12-.69-6.67-.69h-7.73c-3.54,0-5.32,0-6.67.69-1.19.61-2.16,1.58-2.77,2.77-.69,1.36-.69,3.13-.69,6.68v7.73c0,3.55,0,5.33.69,6.68.61,1.19,1.58,2.16,2.77,2.77,1.35.69,3.12.69,6.67.69h7.73c3.54,0,5.32,0,6.67-.69,1.19-.61,2.16-1.58,2.77-2.77.69-1.36.69-3.13.69-6.68v-7.73c0-3.55,0-5.33-.69-6.68ZM22.22,12.38s-.04.03-.06.05c-.77.89-1.72,1.75-2.93,2.55-5.47,3.64-10.47,2.93-13.2,5.07-1.84,1.44-2.65,3.89-2.83,4.93,0-.02,0-.05,0-.07,0,.02,0,.04-.01.06,0-.23,0-.46.01-.7,0-.12.02-.25.03-.38.02-.5.07-1.01.14-1.52,0-.01,0-.02,0-.04.05-.36.11-.72.19-1.08.01-.07.03-.14.04-.21.08-.34.17-.68.28-1.02.02-.08.05-.16.08-.23.12-.34.24-.68.39-1.02.02-.05.05-.1.07-.15.14-.31.3-.61.47-.9.04-.07.08-.15.12-.22.19-.31.41-.62.64-.92.06-.08.12-.16.19-.24.24-.3.51-.59.8-.88.06-.06.13-.12.19-.18.32-.3.66-.59,1.04-.87.26-.19.52-.37.77-.53.21-.13.42-.25.62-.37.04-.02.09-.05.13-.08.22-.12.43-.23.64-.33.03-.01.06-.03.09-.04.23-.11.46-.2.68-.3.01,0,.02-.01.04-.01,1.03-.42,2.04-.68,3.09-.96,1.16-.31,2.37-.63,3.69-1.17.04-.02.08-.03.12-.05.32-.14.65-.29.98-.45.07-.03.13-.06.2-.1.38-.19.77-.4,1.18-.65,2.28-1.37,3.94-2.89,4.43-6.4,0,.02.01.06.01.06,0,0,0,0,0,0,0,0,0-.01,0-.02.04.2.07.4.1.61-.03-.2-.06-.4-.1-.59.03.27.04.57.03.88-.06,2.23-1.15,5.32-4.25,6.92-1.68.87-3.23,1.22-4.9,1.6-1.06.24-2.16.49-3.38.89-1.42.6-2.85,1.25-4.08,2.08-3.02,2.01-4.28,5.48-4.69,7.98-.02.17-.04.34-.05.49-.02.34-.03.68-.03,1.01.14-1.32.67-2.72,1.5-4.03-.05.06-.1.13-.14.19.06-.09.13-.18.19-.27.16-.25.33-.48.51-.72.12-.15.23-.3.36-.45.2-.24.42-.46.65-.68.13-.13.26-.26.4-.39.26-.23.54-.44.83-.65.13-.1.25-.2.39-.29.43-.29.89-.55,1.37-.78,1.58-.74,3.3-1.05,5.06-1.37,2.21-.4,4.48-.81,6.61-2.09.44-.27.83-.57,1.19-.91.03-.03.06-.07.09-.1h0s.02-.02.03-.04c-.01.01-.02.03-.03.04h0ZM22.74,11.71c.38-.52.7-1.05.96-1.58-.26.53-.58,1.06-.96,1.58Z"/>
  </g>
</svg>