<?xml version="1.0" encoding="UTF-8"?>
<svg id="Layer_2" xmlns="http://www.w3.org/2000/svg" xmlns:xlink="http://www.w3.org/1999/xlink" version="1.1" viewBox="0 0 28 28">
  <!-- Generator: Adobe Illustrator 29.6.1, SVG Export Plug-In . SVG Version: 2.1.1 Build 9)  -->
  <defs>
    <style>
      .st0 {
        fill: url(#linear-gradient);
      }

      .st0, .st1 {
        fill-rule: evenodd;
      }

      .st1 {
        fill: url(#linear-gradient1);
      }
    </style>
    <linearGradient id="linear-gradient" x1="10.5" y1="3847.8" x2="10.5" y2="3868.5" gradientTransform="translate(0 -3847.8)" gradientUnits="userSpaceOnUse">
      <stop offset="0" stop-color="#327ebd"/>
      <stop offset="1" stop-color="#1565a7"/>
    </linearGradient>
    <linearGradient id="linear-gradient1" x1="17.5" y1="3855" x2="17.5" y2="3875.8" gradientTransform="translate(0 -3847.8)" gradientUnits="userSpaceOnUse">
      <stop offset="0" stop-color="#69c"/>
      <stop offset="1" stop-color="#8de8e8"/>
    </linearGradient>
  </defs>
  <g id="Layer_1-2">
    <g>
      <path class="st0" d="M11,0c-2.2,0-4,1.7-4,3.8v2.7h6.9v.7H4c-2.2,0-4,1.7-4,3.9v5.8c0,2.1,1.8,3.9,4,3.9h2.3v-3.3c0-2.1,1.8-3.9,4-3.9h7.4c1.9,0,3.4-1.5,3.4-3.3V3.8c0-2.1-1.8-3.8-4-3.8h-6ZM10.1,4.7c.8,0,1.4-.6,1.4-1.3s-.6-1.3-1.4-1.3-1.4.6-1.4,1.3.6,1.3,1.4,1.3Z"/>
      <path class="st1" d="M17,28c2.2,0,4-1.7,4-3.9v-2.7h-6.9v-.7h10c2.2,0,4-1.7,4-3.9v-5.8c0-2.1-1.8-3.8-4-3.8h-2.3v3.3c0,2.1-1.8,3.9-4,3.9h-7.4c-1.9,0-3.4,1.5-3.4,3.3v6.5c0,2.1,1.8,3.9,4,3.9h6ZM17.9,23.3c-.8,0-1.4.6-1.4,1.3s.6,1.3,1.4,1.3,1.4-.6,1.4-1.3-.6-1.3-1.4-1.3Z"/>
    </g>
  </g>
</svg>