<?xml version="1.0" encoding="UTF-8"?>
<svg id="Layer_2" data-name="Layer 2" xmlns="http://www.w3.org/2000/svg" viewBox="0 0 30 26">
  <defs>
    <style>
      .cls-1 {
        fill-rule: evenodd;
      }

      .cls-1, .cls-2 {
        fill: #6cc;
      }
    </style>
  </defs>
  <g id="Layer_1-2" data-name="Layer 1">
    <g id="uuid-087d458d-02f1-4cb5-a8b8-e92489d74c62" data-name="Layer 1-2">
      <g>
        <path class="cls-2" d="M17.68,12.98c0-1.43-1.2-2.6-2.68-2.6s-2.68,1.16-2.68,2.6,1.2,2.6,2.68,2.6,2.68-1.16,2.68-2.6Z"/>
        <path class="cls-1" d="M23.7,8.15c.57-2.23,1.28-6.36-1.23-7.76-2.49-1.4-5.74,1.28-7.46,2.88C13.3,1.68,9.97-.98,7.46.43c-2.49,1.4-1.72,5.46-1.15,7.71-2.32.64-6.31,2.02-6.31,4.84s3.98,4.31,6.3,4.95c-.58,2.26-1.31,6.26,1.18,7.66,2.52,1.41,5.85-1.19,7.58-2.82,1.72,1.61,4.94,4.23,7.43,2.83,2.51-1.41,1.85-5.48,1.28-7.74,2.24-.64,6.23-2.11,6.23-4.89s-4.01-4.18-6.3-4.82ZM23.42,16.67c-.38-1.17-.9-2.4-1.52-3.68.6-1.25,1.09-2.47,1.46-3.63,1.68.47,5.36,1.55,5.36,3.62s-3.54,3.18-5.3,3.69ZM21.85,24.53c-1.86,1.04-4.63-1.46-5.9-2.65.84-.9,1.69-1.94,2.51-3.1,1.45-.12,2.82-.33,4.07-.61.4,1.6,1.19,5.3-.68,6.35h0ZM8.12,24.51c-1.86-1.04-1.01-4.62-.58-6.28,1.23.26,2.59.45,4.04.57.83,1.13,1.7,2.17,2.58,3.08-1.08,1.02-4.17,3.67-6.04,2.63ZM1.28,12.98c0-2.1,3.66-3.17,5.38-3.64.37,1.18.87,2.42,1.46,3.67-.6,1.27-1.1,2.53-1.48,3.73-1.64-.45-5.36-1.65-5.36-3.76ZM8.1,1.5c1.87-1.05,4.77,1.51,6.02,2.66-.88.91-1.74,1.94-2.56,3.07-1.41.13-2.76.33-4,.6-.47-1.81-1.32-5.28.54-6.33ZM19.38,8.58c.96.12,1.87.27,2.73.46-.25.8-.58,1.64-.96,2.5-.55-1.01-1.14-2-1.77-2.97h0ZM15.01,5.05c.6.62,1.19,1.31,1.77,2.07-1.18-.05-2.36-.05-3.55,0,.59-.75,1.18-1.44,1.78-2.07ZM8.86,11.54c-.38-.86-.7-1.7-.96-2.52.86-.19,1.77-.34,2.72-.45-.63.96-1.22,1.95-1.76,2.97ZM10.65,17.47c-.98-.11-1.91-.25-2.76-.43.26-.83.59-1.69.97-2.57.55,1.03,1.14,2.03,1.79,3ZM15.05,20.99c-.61-.64-1.21-1.34-1.81-2.09,1.19.05,2.38.05,3.57,0-.58.77-1.17,1.47-1.76,2.1h0ZM21.17,14.42c.4.89.74,1.74,1,2.56-.87.19-1.8.35-2.79.46.64-.98,1.23-1.99,1.79-3.02ZM17.75,17.59c-1.82.13-3.65.12-5.47.01-1.03-1.46-1.95-3-2.74-4.6.79-1.59,1.7-3.13,2.73-4.59,1.82-.13,3.65-.13,5.47,0,1.02,1.46,1.93,2.99,2.74,4.57-.8,1.59-1.72,3.13-2.73,4.61ZM21.83,1.47c1.87,1.05,1.04,4.76.63,6.38-1.25-.28-2.6-.49-4.01-.61-.83-1.14-1.68-2.17-2.54-3.07,1.26-1.18,4.07-3.73,5.92-2.69h0Z"/>
      </g>
    </g>
  </g>
</svg>